<?xml version="1.0" encoding="UTF-8" standalone="no"?>
<!-- Created with Inkscape (http://www.inkscape.org/) -->

<svg
   xmlns:dc="http://purl.org/dc/elements/1.1/"
   xmlns:cc="http://creativecommons.org/ns#"
   xmlns:rdf="http://www.w3.org/1999/02/22-rdf-syntax-ns#"
   xmlns:svg="http://www.w3.org/2000/svg"
   xmlns="http://www.w3.org/2000/svg"
   xmlns:sodipodi="http://sodipodi.sourceforge.net/DTD/sodipodi-0.dtd"
   xmlns:inkscape="http://www.inkscape.org/namespaces/inkscape"
   width="744.09448819"
   height="1052.3622047"
   id="svg4335"
   version="1.1"
   inkscape:version="0.48.4 r9939"
   sodipodi:docname="FingerJointsDiagram.svg">
  <defs
     id="defs4337" />
  <sodipodi:namedview
     id="base"
     pagecolor="#ffffff"
     bordercolor="#666666"
     borderopacity="1.0"
     inkscape:pageopacity="0.0"
     inkscape:pageshadow="2"
     inkscape:zoom="1.4"
     inkscape:cx="292.31785"
     inkscape:cy="716.96681"
     inkscape:document-units="px"
     inkscape:current-layer="layer1"
     showgrid="false"
     showguides="true"
     inkscape:guide-bbox="true"
     inkscape:window-width="1274"
     inkscape:window-height="896"
     inkscape:window-x="564"
     inkscape:window-y="111"
     inkscape:window-maximized="0">
    <sodipodi:guide
       orientation="1,0"
       position="642.45702,488.91383"
       id="guide4440" />
  </sodipodi:namedview>
  <metadata
     id="metadata4340">
    <rdf:RDF>
      <cc:Work
         rdf:about="">
        <dc:format>image/svg+xml</dc:format>
        <dc:type
           rdf:resource="http://purl.org/dc/dcmitype/StillImage" />
        <dc:title></dc:title>
      </cc:Work>
    </rdf:RDF>
  </metadata>
  <g
     inkscape:label="Layer 1"
     inkscape:groupmode="layer"
     id="layer1">
    <path
       d="m 123.68651,113.75702 -100.101877,0 0,92.6642 23.96158,0 0.86261,-0.88178 -0.86261,0.88178 0,63.23939 0.86261,0.86262 -0.86261,-0.86262 -23.96158,0 0,73.68663 23.96158,0 0.86261,-0.88179 -0.86261,0.88179 0,63.22022 0.86261,0.88179 -0.86261,-0.88179 -23.96158,0 0,73.68664 23.96158,0 0.86261,-0.86262 -0.86261,0.86262 0,63.23939 0.86261,0.88178 -0.86261,-0.88178 -23.96158,0 0,124.63852 106.868627,-96.82393 -12.47919,-13.7827 -1.246,-0.0575 1.246,0.0575 59.61639,-53.9998 0.0575,-1.22683 -0.0575,1.22683 12.47919,13.78269 67.36078,-61.01575 -12.47918,-13.7827 -1.24601,-0.0575 1.24601,0.0575 59.61639,-53.9998 0.0575,-1.22684 -0.0575,1.22684 12.47919,13.78269 59.25218,-53.67392 57.77615,0 0,-18.59418 -0.86262,-0.86262 0.86262,0.86262 58.27455,0 0.86262,-0.86262 -0.86262,0.86262 0,18.59418 68.70262,0 0,-18.59418 -0.86261,-0.86262 0.86261,0.86262 58.27455,0 0.86262,-0.86262 -0.86262,0.86262 0,18.59418 87.68017,0 0,-88.10192 -18.5942,0 -0.8626,0.88179 0.8626,-0.88179 0,-58.65793 -0.8626,-0.88179 0.8626,0.88179 18.5942,0 0,-88.10192 -94.73446,0 0,18.59418 0.86262,0.86262 -0.86262,-0.86262 -65.32883,0 -0.86262,0.86262 0.86262,-0.86262 0,-18.59418 -75.75691,0 0,18.59418 0.86261,0.86262 -0.86261,-0.86262 -65.32884,0 -0.86262,0.86262 0.86262,-0.86262 0,-18.59418 -75.75692,0 0,18.59418 0.86262,0.86262 -0.86262,-0.86262 -65.32883,0 -0.86262,0.86262 0.86262,-0.86262 0,-18.59418 -75.75692,0 0,18.59418 0.86262,0.86262 -0.86262,-0.86262 -65.32883,0 -0.86262,0.86262 0.86262,-0.86262 0,-18.59418"
       style="fill:none;stroke:#000000;stroke-width:0.19169261px"
       id="path3901"
       inkscape:connector-curvature="0" />
    <path
       style="fill:none;stroke:#00ff00;stroke-width:1px;stroke-linecap:butt;stroke-linejoin:miter;stroke-opacity:1"
       d="m 46.724439,132.08734 641.428571,0 0,197.14286 -322.85715,0 -318.571421,294.28572 z"
       id="path4366"
       inkscape:connector-curvature="0" />
    <path
       d="m 562.35435,693.69178 -84.7087,0 84.7087,0 0,0"
       style="fill:none;stroke:#ff0000;stroke-width:0.16067660000000000px"
       id="path3923"
       inkscape:connector-curvature="0" />
    <path
       d="m 562.35435,691.32983 -84.7087,0 84.7087,0 0,0"
       style="fill:none;stroke:#ff0000;stroke-width:0.16067660000000000px"
       id="path3925"
       inkscape:connector-curvature="0" />
    <path
       d="m 562.35435,688.98395 -84.7087,0 84.7087,0 0,0"
       style="fill:none;stroke:#ff0000;stroke-width:0.16067660000000000px"
       id="path3927"
       inkscape:connector-curvature="0" />
    <path
       d="m 562.35435,686.63807 -84.7087,0 84.7087,0 0,0"
       style="fill:none;stroke:#ff0000;stroke-width:0.16067660000000000px"
       id="path3929"
       inkscape:connector-curvature="0" />
    <path
       d="m 562.35435,684.27613 -84.7087,0 84.7087,0 0,0"
       style="fill:none;stroke:#ff0000;stroke-width:0.16067660000000000px"
       id="path3931"
       inkscape:connector-curvature="0" />
    <path
       d="m 562.35435,681.93025 -84.7087,0 84.7087,0 0,0"
       style="fill:none;stroke:#ff0000;stroke-width:0.16067660000000000px"
       id="path3933"
       inkscape:connector-curvature="0" />
    <path
       d="m 643.014,478.48154 0,-69.12308 -85.03005,0 0,15.58564 0.72304,0.72304 -0.72304,-0.72304 -75.9679,0 -0.72304,0.72304 0.72304,-0.72304 0,-15.58564 -85.03005,0 0,69.12308 0.72304,0.72304 -0.72304,-0.72304 -15.58564,0 0,57.58649 15.58564,0 0.72304,-0.72304 -0.72304,0.72304 0,48.84569 0.72304,0.72304 -0.72304,-0.72304 -15.58564,0 0,57.58649 15.58564,0 0.72304,-0.72304 -0.72304,0.72304 0,70.74591 85.03005,0 0,-17.20847 -0.72304,-0.72304 0.72304,0.72304 75.9679,0 0.72304,-0.72304 -0.72304,0.72304 0,17.20847 85.03005,0 0,-70.74591 -0.72304,-0.72304 0.72304,0.72304 15.58564,0 0,-57.58649 -15.58564,0 -0.72304,0.72304 0.72304,-0.72304 0,-48.84569 -0.72304,-0.72304 0.72304,0.72304 15.58564,0 0,-57.58649 -15.58564,0 -0.72304,0.72304 0.72304,-0.72304"
       style="fill:none;stroke:#000000;stroke-width:0.1606766px"
       id="path3945"
       inkscape:connector-curvature="0" />
    <path
       style="fill:none;stroke:#00ff00;stroke-width:1px;stroke-linecap:butt;stroke-linejoin:miter;stroke-opacity:1"
       d="m 395.9798,678.60574 0,-253.54829 246.47722,0 0,253.54829 z"
       id="path4446"
       inkscape:connector-curvature="0" />
    <text
       xml:space="preserve"
       style="font-size:10px;font-style:normal;font-variant:normal;font-weight:normal;font-stretch:normal;line-height:125%;letter-spacing:0px;word-spacing:0px;fill:#000000;fill-opacity:1;stroke:none;font-family:Arial;-inkscape-font-specification:Arial"
       x="403.12265"
       y="420.77176"
       id="text4448"
       sodipodi:linespacing="125%"><tspan
         sodipodi:role="line"
         id="tspan4450"
         x="403.12265"
         y="420.77176">startmode=off</tspan></text>
    <text
       xml:space="preserve"
       style="font-size:10px;font-style:normal;font-variant:normal;font-weight:normal;font-stretch:normal;line-height:125%;letter-spacing:0px;word-spacing:0px;fill:#000000;fill-opacity:1;stroke:none;font-family:Arial;-inkscape-font-specification:Arial"
       x="571.17365"
       y="418.80087"
       id="text4448-1"
       sodipodi:linespacing="125%"><tspan
         sodipodi:role="line"
         id="tspan4450-0"
         x="571.17365"
         y="418.80087">endmode=off</tspan></text>
    <text
       xml:space="preserve"
       style="font-size:10px;font-style:normal;font-variant:normal;font-weight:normal;font-stretch:normal;line-height:125%;letter-spacing:0px;word-spacing:0px;fill:#000000;fill-opacity:1;stroke:none;font-family:Arial;-inkscape-font-specification:Arial"
       x="493.57144"
       y="728.79077"
       id="text4473"
       sodipodi:linespacing="125%"><tspan
         sodipodi:role="line"
         id="tspan4475"
         x="493.57144"
         y="728.79077">lineside=top</tspan></text>
    <text
       xml:space="preserve"
       style="font-size:10px;font-style:normal;font-variant:normal;font-weight:normal;font-stretch:normal;line-height:125%;letter-spacing:0px;word-spacing:0px;fill:#000000;fill-opacity:1;stroke:none;font-family:Arial;-inkscape-font-specification:Arial"
       x="405"
       y="708.07648"
       id="text4477"
       sodipodi:linespacing="125%"><tspan
         sodipodi:role="line"
         id="tspan4479"
         x="405"
         y="708.07648">endmode=off</tspan></text>
    <text
       xml:space="preserve"
       style="font-size:10px;font-style:normal;font-variant:normal;font-weight:normal;font-stretch:normal;line-height:125%;letter-spacing:0px;word-spacing:0px;fill:#000000;fill-opacity:1;stroke:none;font-family:Arial;-inkscape-font-specification:Arial"
       x="571.88794"
       y="707.37231"
       id="text4448-15"
       sodipodi:linespacing="125%"><tspan
         sodipodi:role="line"
         id="tspan4450-4"
         x="571.88794"
         y="707.37231">startmode=off</tspan></text>
    <text
       xml:space="preserve"
       style="font-size:10px;font-style:normal;font-variant:normal;font-weight:normal;font-stretch:normal;line-height:125%;letter-spacing:0px;word-spacing:0px;fill:#000000;fill-opacity:1;stroke:none;font-family:Arial;-inkscape-font-specification:Arial"
       x="642.45703"
       y="454.51517"
       id="text4448-4"
       sodipodi:linespacing="125%"><tspan
         sodipodi:role="line"
         id="tspan4450-41"
         x="642.45703"
         y="454.51517">startmode=on</tspan></text>
    <text
       xml:space="preserve"
       style="font-size:10px;font-style:normal;font-variant:normal;font-weight:normal;font-stretch:normal;line-height:125%;letter-spacing:0px;word-spacing:0px;fill:#000000;fill-opacity:1;stroke:none;font-family:Arial;-inkscape-font-specification:Arial"
       x="642.45703"
       y="666.46283"
       id="text4448-1-2"
       sodipodi:linespacing="125%"><tspan
         sodipodi:role="line"
         id="tspan4450-0-4"
         x="642.45703"
         y="666.46283">endmode=on</tspan></text>
    <text
       xml:space="preserve"
       style="font-size:10px;font-style:normal;font-variant:normal;font-weight:normal;font-stretch:normal;line-height:125%;letter-spacing:0px;word-spacing:0px;fill:#000000;fill-opacity:1;stroke:none;font-family:Arial;-inkscape-font-specification:Arial"
       x="330.80811"
       y="454.45413"
       id="text4448-1-2-5"
       sodipodi:linespacing="125%"><tspan
         sodipodi:role="line"
         id="tspan4450-0-4-0"
         x="330.80811"
         y="454.45413">endmode=on</tspan></text>
    <text
       xml:space="preserve"
       style="font-size:10px;font-style:normal;font-variant:normal;font-weight:normal;font-stretch:normal;line-height:125%;letter-spacing:0px;word-spacing:0px;fill:#000000;fill-opacity:1;stroke:none;font-family:Arial;-inkscape-font-specification:Arial"
       x="330.88901"
       y="659.45416"
       id="text4448-4-7"
       sodipodi:linespacing="125%"><tspan
         sodipodi:role="line"
         id="tspan4450-41-3"
         x="330.88901"
         y="659.45416">startmode=on</tspan></text>
    <text
       xml:space="preserve"
       style="font-size:10px;font-style:normal;font-variant:normal;font-weight:normal;font-stretch:normal;line-height:125%;letter-spacing:0px;word-spacing:0px;fill:#000000;fill-opacity:1;stroke:none;font-family:Arial;-inkscape-font-specification:Arial"
       x="460.88904"
       y="512.31128"
       id="text4448-4-6"
       sodipodi:linespacing="125%"><tspan
         sodipodi:role="line"
         id="tspan4450-41-9"
         x="460.88904"
         y="512.31128">side=left</tspan></text>
    <path
       style="fill:none;stroke:#000000;stroke-width:1px;stroke-linecap:butt;stroke-linejoin:miter;stroke-opacity:1"
       d="m 450,444.50504 85,-0.71429"
       id="path4595"
       inkscape:connector-curvature="0" />
    <path
       style="fill:none;stroke:#000000;stroke-width:1px;stroke-linecap:butt;stroke-linejoin:miter;stroke-opacity:1"
       d="m 525,437.36218 10,5.71429 -7.85714,8.57143"
       id="path4597"
       inkscape:connector-curvature="0" />
    <text
       xml:space="preserve"
       style="font-size:10px;font-style:normal;font-variant:normal;font-weight:normal;font-stretch:normal;line-height:125%;letter-spacing:0px;word-spacing:0px;fill:#000000;fill-opacity:1;stroke:none;font-family:Arial;-inkscape-font-specification:Arial"
       x="460.54099"
       y="524.75018"
       id="text4599"
       sodipodi:linespacing="125%"><tspan
         sodipodi:role="line"
         id="tspan4601"
         x="460.54099"
         y="524.75018">linemode=external</tspan></text>
    <text
       xml:space="preserve"
       style="font-size:10px;font-style:normal;font-variant:normal;font-weight:normal;font-stretch:normal;line-height:125%;letter-spacing:0px;word-spacing:0px;fill:#000000;fill-opacity:1;stroke:none;font-family:Arial;-inkscape-font-specification:Arial"
       x="404.28574"
       y="613.79077"
       id="text4603"
       sodipodi:linespacing="125%"><tspan
         sodipodi:role="line"
         id="tspan4605"
         x="404.28574"
         y="613.79077">tab_length+a bit</tspan></text>
    <path
       style="fill:none;stroke:#000000;stroke-width:1px;stroke-linecap:butt;stroke-linejoin:miter;stroke-opacity:1"
       d="m 400,585.93361 30,0"
       id="path4607"
       inkscape:connector-curvature="0" />
    <path
       style="fill:none;stroke:#000000;stroke-width:1px;stroke-linecap:butt;stroke-linejoin:miter;stroke-opacity:1"
       d="m 399.28571,643.07647 32.14286,0"
       id="path4609"
       inkscape:connector-curvature="0" />
    <path
       style="opacity:0.5787037;fill:none;stroke:#000000;stroke-width:1.25;stroke-miterlimit:4;stroke-opacity:0.47619048;stroke-dasharray:none;stroke-dashoffset:0"
       d="m 54.53768,666.47841 c -21.26573,0 -38.375,17.14052 -38.375,38.40625 l 0,280.81255 c 0,21.26569 17.10927,38.37499 38.375,38.37499 l 266.68745,0 c 21.2658,0 38.375,-17.1093 38.375,-38.37499 l 0,-280.81255 c 0,-21.26573 -17.1092,-38.40625 -38.375,-38.40625 l -266.68745,0 z m 33,56.78125 15.62505,0 62.1874,0 0,15.28125 53.5626,0 0,-15.28125 62.1562,0 15.625,0 0,15.59375 0,46.90625 -15.3125,0 0,38.34375 15.3125,0 0,46.875 -15.3125,0 0,38.34375 15.3125,0 0,46.87505 0,15.625 -15.625,0 -62.1562,0 0,-15.2813 -53.5626,0 0,15.2813 -62.1874,0 -15.62505,0 0,-15.625 0,-46.87505 15.31245,0 0,-38.34375 -15.31245,0 0,-46.875 15.31245,0 0,-38.34375 -15.31245,0 0,-46.90625 0,-15.59375 z"
       id="rect4993"
       inkscape:connector-curvature="0" />
    <text
       x="-473.75708"
       y="1196.4056"
       id="text3441"
       style="font-size:42.51968384px;text-anchor:middle">box_back</text>
    <text
       xml:space="preserve"
       style="font-size:10px;font-style:normal;font-variant:normal;font-weight:normal;font-stretch:normal;line-height:125%;letter-spacing:0px;word-spacing:0px;fill:#000000;fill-opacity:1;stroke:none;font-family:Arial;-inkscape-font-specification:Arial"
       x="142.84679"
       y="815.46637"
       id="text4599-1"
       sodipodi:linespacing="125%"><tspan
         sodipodi:role="line"
         id="tspan4601-0"
         x="142.84679"
         y="815.46637">linemode=internal</tspan></text>
    <path
       style="fill:none;stroke:#00ff00;stroke-width:1px;stroke-linecap:butt;stroke-linejoin:miter;stroke-opacity:1"
       d="m 102.02541,739.21489 178.797,0 0,216.17265 -178.797,0 z"
       id="path5025"
       inkscape:connector-curvature="0" />
    <text
       xml:space="preserve"
       style="font-size:10px;font-style:normal;font-variant:normal;font-weight:normal;font-stretch:normal;line-height:125%;letter-spacing:0px;word-spacing:0px;fill:#000000;fill-opacity:1;stroke:none;font-family:Arial;-inkscape-font-specification:Arial"
       x="309.45218"
       y="758.95886"
       id="text4448-15-1"
       sodipodi:linespacing="125%"><tspan
         sodipodi:role="line"
         id="tspan4450-4-9"
         x="309.45218"
         y="758.95886">startmode=off</tspan></text>
    <text
       xml:space="preserve"
       style="font-size:10px;font-style:normal;font-variant:normal;font-weight:normal;font-stretch:normal;line-height:125%;letter-spacing:0px;word-spacing:0px;fill:#000000;fill-opacity:1;stroke:none;font-family:Arial;-inkscape-font-specification:Arial"
       x="304.73892"
       y="947.85736"
       id="text4477-0"
       sodipodi:linespacing="125%"><tspan
         sodipodi:role="line"
         id="tspan4479-8"
         x="304.73892"
         y="947.85736">endmode=off</tspan></text>
    <text
       xml:space="preserve"
       style="font-size:10px;font-style:normal;font-variant:normal;font-weight:normal;font-stretch:normal;line-height:125%;letter-spacing:0px;word-spacing:0px;fill:#000000;fill-opacity:1;stroke:none;font-family:Arial;-inkscape-font-specification:Arial"
       x="20.886045"
       y="754.91827"
       id="text4477-1"
       sodipodi:linespacing="125%"><tspan
         sodipodi:role="line"
         id="tspan4479-7"
         x="20.886045"
         y="754.91827">endmode=off</tspan></text>
    <text
       xml:space="preserve"
       style="font-size:10px;font-style:normal;font-variant:normal;font-weight:normal;font-stretch:normal;line-height:125%;letter-spacing:0px;word-spacing:0px;fill:#000000;fill-opacity:1;stroke:none;font-family:Arial;-inkscape-font-specification:Arial"
       x="234.02823"
       y="707.4411"
       id="text4477-4"
       sodipodi:linespacing="125%"><tspan
         sodipodi:role="line"
         id="tspan4479-3"
         x="234.02823"
         y="707.4411">endmode=off</tspan></text>
    <text
       xml:space="preserve"
       style="font-size:10px;font-style:normal;font-variant:normal;font-weight:normal;font-stretch:normal;line-height:125%;letter-spacing:0px;word-spacing:0px;fill:#000000;fill-opacity:1;stroke:none;font-family:Arial;-inkscape-font-specification:Arial"
       x="96.647484"
       y="985.23303"
       id="text4477-08"
       sodipodi:linespacing="125%"><tspan
         sodipodi:role="line"
         id="tspan4479-77"
         x="96.647484"
         y="985.23303">endmode=off</tspan></text>
    <text
       xml:space="preserve"
       style="font-size:10px;font-style:normal;font-variant:normal;font-weight:normal;font-stretch:normal;line-height:125%;letter-spacing:0px;word-spacing:0px;fill:#000000;fill-opacity:1;stroke:none;font-family:Arial;-inkscape-font-specification:Arial"
       x="81.157692"
       y="714.51215"
       id="text4448-15-18"
       sodipodi:linespacing="125%"><tspan
         sodipodi:role="line"
         id="tspan4450-4-92"
         x="81.157692"
         y="714.51215">startmode=off</tspan></text>
    <text
       xml:space="preserve"
       style="font-size:10px;font-style:normal;font-variant:normal;font-weight:normal;font-stretch:normal;line-height:125%;letter-spacing:0px;word-spacing:0px;fill:#000000;fill-opacity:1;stroke:none;font-family:Arial;-inkscape-font-specification:Arial"
       x="8.4267111"
       y="945.8371"
       id="text4448-15-6"
       sodipodi:linespacing="125%"><tspan
         sodipodi:role="line"
         id="tspan4450-4-3"
         x="8.4267111"
         y="945.8371">startmode=off</tspan></text>
    <text
       xml:space="preserve"
       style="font-size:10px;font-style:normal;font-variant:normal;font-weight:normal;font-stretch:normal;line-height:125%;letter-spacing:0px;word-spacing:0px;fill:#000000;fill-opacity:1;stroke:none;font-family:Arial;-inkscape-font-specification:Arial"
       x="231.67043"
       y="995.33459"
       id="text4448-15-9"
       sodipodi:linespacing="125%"><tspan
         sodipodi:role="line"
         id="tspan4450-4-0"
         x="231.67043"
         y="995.33459">startmode=off</tspan></text>
    <text
       xml:space="preserve"
       style="font-size:38.35456085px;font-style:normal;font-variant:normal;font-weight:normal;font-stretch:normal;line-height:125%;letter-spacing:0px;word-spacing:0px;fill:#000000;fill-opacity:1;stroke:none;font-family:Arial;-inkscape-font-specification:Arial"
       x="201.72485"
       y="61.496258"
       id="text5135"
       sodipodi:linespacing="125%"><tspan
         sodipodi:role="line"
         id="tspan5137"
         x="201.72485"
         y="61.496258">Finger Joints</tspan></text>
    <text
       xml:space="preserve"
       style="font-size:10px;font-style:normal;font-variant:normal;font-weight:normal;font-stretch:normal;line-height:125%;letter-spacing:0px;word-spacing:0px;fill:#000000;fill-opacity:1;stroke:none;font-family:Arial;-inkscape-font-specification:Arial"
       x="181.82745"
       y="150.29594"
       id="text5139"
       sodipodi:linespacing="125%"><tspan
         sodipodi:role="line"
         id="tspan5141"
         x="181.82745"
         y="150.29594">Joint is defined by this line</tspan><tspan
         sodipodi:role="line"
         x="181.82745"
         y="162.79594"
         id="tspan5170">side defines which side of it the joint should be created along</tspan><tspan
         sodipodi:role="line"
         x="181.82745"
         y="175.29594"
         id="tspan5172">linemode defines which side should be clear points</tspan></text>
    <text
       xml:space="preserve"
       style="font-size:10px;font-style:normal;font-variant:normal;font-weight:normal;font-stretch:normal;line-height:125%;letter-spacing:0px;word-spacing:0px;fill:#000000;fill-opacity:1;stroke:none;font-family:Arial;-inkscape-font-specification:Arial"
       x="181.42857"
       y="260.2193"
       id="text5143"
       sodipodi:linespacing="125%"><tspan
         sodipodi:role="line"
         id="tspan5145"
         x="181.42857"
         y="260.2193">instead of add_points() use add_points_intersect() to get clean</tspan><tspan
         sodipodi:role="line"
         x="181.42857"
         y="272.7193"
         id="tspan5147">corners. </tspan><tspan
         sodipodi:role="line"
         x="181.42857"
         y="285.2193"
         id="tspan5149">use close_intersect() to tidy up the first and last point</tspan></text>
  </g>
</svg>
